PathFileType	4	(X/Y/Z)	20_2_18_p0_0-505_filt_butterworth.trc
DataRate	CameraRate	NumFrames	NumMarkers	Units	OrigDataRate	OrigDataStartFrame	OrigNumFrames
59.0	59.0	6	27	m	59.0	315	505
Frame#	Time	RHip			RKnee			RAnkle			RBigToe			RSmallToe			RHeel			LHip			LKnee			LAnkle			LBigToe			LSmallToe			LHeel			Neck			Head			Nose			RShoulder			RElbow			RWrist			RThumb			RIndex			RPinky			LShoulder			LElbow			LWrist			LThumb			LIndex			LPinky			
		X1	Y1	Z1	X2	Y2	Z2	X3	Y3	Z3	X4	Y4	Z4	X5	Y5	Z5	X6	Y6	Z6	X7	Y7	Z7	X8	Y8	Z8	X9	Y9	Z9	X10	Y10	Z10	X11	Y11	Z11	X12	Y12	Z12	X13	Y13	Z13	X14	Y14	Z14	X15	Y15	Z15	X16	Y16	Z16	X17	Y17	Z17	X18	Y18	Z18	X19	Y19	Z19	X20	Y20	Z20	X21	Y21	Z21	X22	Y22	Z22	X23	Y23	Z23	X24	Y24	Z24	X25	Y25	Z25	X26	Y26	Z26	X27	Y27	Z27	
315	5.338983050847458	0.3519346716312568	0.4525367900173257	0.895647767655492	0.354095050887458	0.6388296650111733	1.326316818622614	0.33302345838328506	0.7573241367439653	1.7588252458473814	0.32395201308652594	0.6275078503753286	1.8052125453442665	0.3800537444095878	0.6389673458907649	1.7954488479167658	0.32359160820192795	0.8348129865890392	1.8231303116806752	0.15575202175817504	0.49897875754662674	0.8942187660893521	0.15169144938268656	0.6752801141183388	1.337218028261879	0.15031139870501056	0.7954814531277392	1.774480851772449	0.16553207175638301	0.6102163315295752	1.7866241471553364	0.12778290499219377	0.605999354224869	1.7709546348190714	0.1634814462574234	0.8359200072838829	1.813649113217968	0.230187310312636	0.4235735263158501	0.3772332531808867	0.2679437381015302	0.3200837798791668	0.15155256841779294	0.2460491388681919	0.2281709252022937	0.29552225005690913	0.3848541054801115	0.4052797766616607	0.4421602117251294	0.4532240503160196	0.45856296266660357	0.708309212369495	0.3755184582178259	0.38815115585015614	0.9315269429897102	0.26526877237882673	0.3596034451261229	1.0257747693810269	0.26428211790200085	0.3793648368787794	1.050551625536349	0.2938602582792219	0.45035891509411496	1.0623741405549216	0.08853130920745697	0.434020576374475	0.47184527894751205	0.06418141703648848	0.4876872831354535	0.7326858177499731	0.1367745375774683	0.4096731003523129	0.963830930229786	0.22128225091203949	0.3871199449898874	1.0262683398624701	0.22478550352061383	0.4039335732822462	1.0576898823781191	0.1976159259719577	0.43596665899352754	1.0729100651284038
316	5.3559322033898304	0.3515142014705252	0.4518262991891824	0.895054090705103	0.35372802285499133	0.6386439675548115	1.324948662097068	0.33320857270879867	0.7572326506179348	1.7558603941296436	0.32395365392611614	0.6275632841313	1.8051029788919069	0.380043108274147	0.6387315365646806	1.795414527794437	0.32353084104407526	0.8349461743436866	1.8228483973927685	0.1557535886727374	0.4987549169491108	0.894683170572603	0.15105497230956558	0.6733885836379823	1.3340357316583678	0.1503404403277202	0.7955338897242872	1.774484020270092	0.16541999057131515	0.6104203066685794	1.7866610765392779	0.12760465890362369	0.6064214503441882	1.7710069320861277	0.16518606632931498	0.8371222332641475	1.8142232046905835	0.22907775204089453	0.428243541703648	0.37701371261346955	0.26803407153047837	0.32002942957317915	0.15183178347461984	0.24491929974535048	0.23198341639184833	0.2951940676373627	0.38486066140132885	0.4053081848101664	0.4420239214051655	0.4537344065593221	0.45857293108901465	0.7095015912713043	0.37553701280655505	0.3880645684027409	0.9315172066681894	0.26436416190303147	0.3632540519898641	1.0259307560866535	0.26226350893788447	0.38291956148387774	1.0511863640096952	0.29421476385858264	0.45359308963318234	1.0627711167713803	0.08873855075119533	0.43407239578685824	0.47185589624360563	0.06419813869886498	0.48800164280097397	0.7328237079010007	0.13676732760369614	0.4096557400952595	0.963864288915915	0.22128434218447166	0.3871386875375027	1.0262470387629632	0.22487246627373803	0.403873625822896	1.0576847216527583	0.2001933826959082	0.43131022920665096	1.072148210004347
317	5.372881355932203	0.35136456082661877	0.4509050639034702	0.8952774357152976	0.35349460519305304	0.6389328293589229	1.3246671016725458	0.33349055141154416	0.7571642209982912	1.7533645684255055	0.32406492652240715	0.6274213891449237	1.8046021806025558	0.3800814107604654	0.6388242095179845	1.7953734920248783	0.3234698011535846	0.8350408383775298	1.8228301735333874	0.15595543808162612	0.49929399878675285	0.8961628360504701	0.15074319735055325	0.6723973209420476	1.3322272807450397	0.15036494992215704	0.7956881916599321	1.7745239024514359	0.1654067401200033	0.6107665342519744	1.7867920973345603	0.12749970279300343	0.6066633091777017	1.7710096821383452	0.16584807492301884	0.8374968585190448	1.8144089413312043	0.22820551722300939	0.43172746675044593	0.3768040598177476	0.2681042341724833	0.31970123877842344	0.15122103488597846	0.24418408006770623	0.23476924889489498	0.2948765567366989	0.3848927847484121	0.40527290792745574	0.44239310653702574	0.4543028805319676	0.45856175246329106	0.7103486581305515	0.37557638637630486	0.3878558006958691	0.9314857768189776	0.26310953809341386	0.3663892009691532	1.0264769573699064	0.25908156320397135	0.39076011292505275	1.052492411281605	0.2941576792906583	0.4546053760590337	1.062968668543088	0.08860435409268119	0.4341234110975079	0.4718758923411778	0.06411343048317072	0.48817457358430194	0.7329200207722694	0.1367534501312299	0.40965440098525124	0.9638894670283815	0.22127186106122845	0.3871581433830287	1.0262309801891394	0.2249488814448492	0.40384552290661646	1.0577689453862793	0.20280737858001072	0.4337635231437126	1.0716904559943352
318	5.389830508474576	0.3515317174989627	0.45078061354366955	0.8965205736639206	0.3535156872049247	0.6385990930483101	1.3255718495569317	0.3337116746647836	0.7569393868729142	1.7527474243169179	0.32431050756933355	0.6271266147667872	1.8034839267543086	0.3801827290817019	0.6392879461306582	1.7953327835726345	0.3234096080866982	0.8351333783918864	1.8229107441915398	0.15629613467815168	0.5006041383335189	0.8985504863247413	0.15090755042875653	0.6723444393553168	1.3329833878200041	0.1503627053173126	0.7958171371712426	1.774560592982433	0.1654001974582505	0.6107852993614885	1.786805385950862	0.12747616505662104	0.6067178656881481	1.7709826512632358	0.1657251426190819	0.8372345597762154	1.814271481492411	0.2277959473775652	0.4328165348390962	0.37631597777765285	0.26813830306411945	0.31925067695625997	0.14984875075291104	0.2443979560215579	0.2355496827185352	0.29445070130510387	0.38495374941030086	0.405035386858985	0.44295261570786776	0.454604345198573	0.45875064274201593	0.7107376381650189	0.3756185132733288	0.387561523398437	0.9314187285833082	0.2620951469708724	0.36803423399527296	1.0272985088428535	0.25681107928429026	0.39767393911499777	1.053631287310117	0.29406597056702244	0.45457156208684535	1.0630365592661366	0.08734894143788062	0.43410035670574876	0.4719209253456732	0.06407131662127954	0.4882283553828455	0.7329652905745868	0.13672975138242136	0.40966702608181804	0.9639033591800854	0.2212406371562161	0.38719421008852206	1.0262299013007916	0.22499082277774352	0.403831752650046	1.058085638846324	0.20432781164327524	0.4391719707339373	1.0719375694627664
319	5.406779661016949	0.35225859829630884	0.45236414008609865	0.8981661679870433	0.353730269424944	0.6371243675591034	1.3272806352351545	0.333798268906211	0.7564279865964932	1.7537461966428078	0.32462544143883376	0.6268325561386582	1.8020572723345907	0.38019970612130266	0.6394229565410917	1.7948275268322904	0.32344536289977777	0.8353125174841445	1.822992593477741	0.1565912589067693	0.501917211470644	0.9008537180280127	0.1513816738386236	0.6726940024610889	1.3361363712929621	0.15032770701165543	0.7958662336827971	1.7745707065746494	0.16512596666531265	0.6094064754299808	1.7862726850854123	0.127495235532309	0.6066848708551432	1.7709552664458297	0.16528923032869142	0.8367025201951725	1.8139715151206928	0.22766663390349245	0.43209764085426383	0.37504569664881454	0.2680515052117685	0.31862810609814385	0.14849856242634663	0.24540497315394197	0.23527349020990115	0.29366380197909303	0.38498347205512246	0.4045218249350917	0.44289225396479526	0.454442885620123	0.459230117226043	0.7109097174111242	0.37557601099308535	0.38759269791752077	0.9313874621041731	0.2616538965578341	0.36846669889311956	1.0279350048145839	0.2564203083567414	0.40072753240334447	1.0541203037739473	0.29429298922050656	0.45568858222678194	1.0632437573270794	0.08465596220419094	0.43393229636227626	0.47197969086306046	0.06407895680150283	0.4882256228372702	0.7329632020752879	0.13669327010172688	0.4096878892559021	0.9638996545410052	0.22120200062215575	0.3872375120353089	1.0262436046254975	0.22497453415570423	0.40383539587704154	1.0586226518378798	0.20404843315591079	0.4441442877115001	1.073107984535314
320	5.423728813559322	0.3536122254414167	0.45599492141152886	0.8995066167990415	0.3538948069182607	0.6357782084450975	1.329505212824418	0.333798730099221	0.7557304545941073	1.7549652675205543	0.3248707143303476	0.6264846282222072	1.800972943649106	0.37976860926625217	0.6379263718139531	1.793468917651622	0.323715559195403	0.835611494234482	1.8230192554904543	0.1567054346551434	0.5025544198783098	0.9021501708245716	0.15183543481724796	0.672963535074071	1.3400288097980833	0.15027673262094757	0.7958506766322513	1.774557594747694	0.16437172428953647	0.6058329360673281	1.784876372995518	0.12751934545882895	0.606606365786952	1.7709251522425107	0.16485981848633333	0.8361930418759752	1.8136612758619008	0.22762203102944312	0.43073199719829763	0.37297431467483944	0.26763405690211567	0.31737423195235004	0.14811457386363255	0.24610027753437372	0.2357856478569353	0.29255557891450856	0.38484366147204235	0.4040721110667289	0.44165104342828193	0.4540357483904791	0.4597513966722189	0.7110126677233732	0.37524170249895183	0.3889624906554475	0.9316197033822975	0.261619125594067	0.3683898329138641	1.0280959336490907	0.25693780704526714	0.4011061534351275	1.0541650467275785	0.2950650768627399	0.4593538629377332	1.0637469667354664	0.08188440696008258	0.43368442861501816	0.4720092254132649	0.06411129236487666	0.48822484535091215	0.7329142770189226	0.13664789508962574	0.4097339177782261	0.9638766652497535	0.22116241737457265	0.38729264420348236	1.0262522285806135	0.22489304606408952	0.4039016649063967	1.0590894271510023	0.20182155740016783	0.44942456788584284	1.0750013994283072
